<svg width="30" height="26" viewBox="0 0 30 26" fill="none" xmlns="http://www.w3.org/2000/svg">
<path d="M21.7143 14.4643L14.8095 11.012L7.90475 14.4643V21.3691L14.8095 24.8215L21.7143 21.3691V14.4643Z" stroke="#82888C" stroke-width="1.5" stroke-linejoin="round"/>
<path d="M7.90475 14.4645L14.8095 17.9169M14.8095 24.8216V17.9169M21.7143 14.4645L14.8095 17.9169M18.2619 12.7383L11.3571 16.1907" stroke="#82888C" stroke-width="1.5" stroke-linecap="round" stroke-linejoin="round"/>
<path d="M14.8095 4.45238L7.90476 1L1 4.45238V11.3571L7.90476 14.8095L14.8095 11.3571V4.45238Z" stroke="#82888C" stroke-width="1.5" stroke-linejoin="round"/>
<path d="M1 4.45227L7.90476 7.90465M7.90476 14.8094V7.90465M14.8095 4.45227L7.90476 7.90465M11.3571 2.72607L4.45238 6.17846" stroke="#82888C" stroke-width="1.5" stroke-linecap="round" stroke-linejoin="round"/>
<path d="M29 4.45238L22.0952 1L15.1905 4.45238V11.3571L22.0952 14.8095L29 11.3571V4.45238Z" stroke="#82888C" stroke-width="1.5" stroke-linejoin="round"/>
<path d="M15.1905 4.45227L22.0952 7.90465M22.0952 14.8094V7.90465M29 4.45227L22.0952 7.90465M25.5476 2.72607L18.6428 6.17846" stroke="#82888C" stroke-width="1.5" stroke-linecap="round" stroke-linejoin="round"/>
</svg>
