<svg width="23" height="17" viewBox="0 0 23 17" fill="none" xmlns="http://www.w3.org/2000/svg">
<g clip-path="url(#clip0_18_301)">
<path d="M5.22729 16.9163V8.20406L2.47133 5.73219L0 4.36047V15.3789C0 16.2296 0.703027 16.9163 1.56822 16.9163H5.22729Z" fill="#4285F4"/>
<path d="M17.7727 16.9163H21.4318C22.2996 16.9163 23 16.227 23 15.3788V4.36053L20.2008 5.93167L17.7727 8.20403V16.9163Z" fill="#34A853"/>
<path d="M5.2273 8.20405L4.85229 4.79991L5.2273 1.54181L11.5 6.15418L17.7727 1.54181L18.1922 4.62401L17.7727 8.20405L11.5 12.8164L5.2273 8.20405Z" fill="#EA4335"/>
<path d="M17.7727 1.54178V8.20401L23 4.36043V2.31048C23 0.409206 20.7862 -0.674654 19.2364 0.465579L17.7727 1.54178Z" fill="#FBBC04"/>
<path d="M0 4.36047L2.40413 6.12829L5.22729 8.20405V1.54182L3.76355 0.465619C2.21105 -0.674702 0 0.409246 0 2.31043V4.36038V4.36047Z" fill="#C5221F"/>
</g>
<defs>
<clipPath id="clip0_18_301">
<rect width="23" height="17" fill="white"/>
</clipPath>
</defs>
</svg>
