<svg width="46" height="36" viewBox="0 0 46 36" fill="none" xmlns="http://www.w3.org/2000/svg">
<g clip-path="url(#clip0_105_115)">
<path d="M8.36249 35.8211V33.4384C8.36249 32.5248 7.81013 31.9293 6.86336 31.9293C6.39006 31.9293 5.87723 32.0881 5.52217 32.6044C5.24617 32.1675 4.85176 31.9293 4.26005 31.9293C3.86545 31.9293 3.47122 32.0483 3.15551 32.4852V32.0087H2.32715V35.8211H3.15551V33.7163C3.15551 33.0413 3.51057 32.7235 4.06293 32.7235C4.61493 32.7235 4.89129 33.0809 4.89129 33.7163V35.8211H5.71965V33.7163C5.71965 33.0413 6.11388 32.7235 6.62671 32.7235C7.17907 32.7235 7.45507 33.0809 7.45507 33.7163V35.8211H8.36249ZM20.6299 32.0087H19.2889V30.8571H18.4606V32.0087H17.7111V32.7631H18.4604V34.5106C18.4604 35.3844 18.8155 35.9005 19.7622 35.9005C20.1173 35.9005 20.5115 35.7815 20.7879 35.6226L20.5511 34.9077C20.3144 35.0665 20.0384 35.1063 19.8411 35.1063C19.4467 35.1063 19.2889 34.8681 19.2889 34.4708V32.7631H20.6299V32.0087ZM27.6514 31.9291C27.1781 31.9291 26.8626 32.1675 26.6653 32.4852V32.0087H25.8369V35.8211H26.6653V33.6766C26.6653 33.0413 26.9413 32.6838 27.4541 32.6838C27.6119 32.6838 27.8092 32.7236 27.9669 32.7633L28.2036 31.9691C28.0458 31.9293 27.8092 31.9293 27.6514 31.9293V31.9291ZM17.0405 32.3264C16.6459 32.0483 16.0937 31.9293 15.502 31.9293C14.5554 31.9293 13.9244 32.4058 13.9244 33.1603C13.9244 33.7959 14.3977 34.1532 15.226 34.2724L15.6204 34.3122C16.0544 34.3914 16.291 34.5106 16.291 34.7093C16.291 34.9871 15.9755 35.1858 15.4231 35.1858C14.871 35.1858 14.437 34.9871 14.1608 34.7887L13.7664 35.424C14.2004 35.7417 14.7921 35.9005 15.3836 35.9005C16.4881 35.9005 17.1194 35.3844 17.1194 34.6695C17.1194 33.9943 16.6066 33.6369 15.8175 33.5178L15.4231 33.478C15.0681 33.4382 14.7921 33.359 14.7921 33.1207C14.7921 32.8427 15.0681 32.6838 15.502 32.6838C15.9755 32.6838 16.4488 32.8823 16.6854 33.0015L17.0405 32.3264ZM39.0513 31.9293C38.5778 31.9293 38.2623 32.1675 38.065 32.4852V32.0087H37.2367V35.8211H38.065V33.6766C38.065 33.0413 38.3412 32.6838 38.8538 32.6838C39.0118 32.6838 39.2091 32.7236 39.3669 32.7633L39.6035 31.9691C39.4457 31.9293 39.2091 31.9293 39.0513 31.9293ZM28.4798 33.9149C28.4798 35.0665 29.2686 35.9005 30.4915 35.9005C31.0437 35.9005 31.4381 35.7815 31.8326 35.4638L31.4381 34.7887C31.1226 35.0269 30.8071 35.146 30.452 35.146C29.7814 35.146 29.3081 34.6695 29.3081 33.9149C29.3081 33.2001 29.7814 32.7235 30.452 32.6838C30.8071 32.6838 31.1226 32.8029 31.4381 33.0413L31.8326 32.3662C31.4381 32.0483 31.0437 31.9293 30.4915 31.9293C29.2686 31.9293 28.4798 32.7633 28.4798 33.9149ZM36.1323 33.9149V32.0087H35.3039V32.4852C35.0278 32.1279 34.6333 31.9293 34.1205 31.9293C33.0555 31.9293 32.2271 32.7633 32.2271 33.9149C32.2271 35.0665 33.0555 35.9005 34.1205 35.9005C34.6727 35.9005 35.0673 35.7021 35.3039 35.3446V35.8211H36.1323V33.9149ZM33.0949 33.9149C33.0949 33.2398 33.5288 32.6838 34.2388 32.6838C34.9093 32.6838 35.3828 33.2001 35.3828 33.9149C35.3828 34.59 34.9093 35.146 34.2388 35.146C33.5288 35.1062 33.0949 34.59 33.0949 33.9149ZM23.1941 31.9293C22.0895 31.9293 21.3005 32.7235 21.3005 33.9149C21.3005 35.1063 22.0894 35.9005 23.2334 35.9005C23.7856 35.9005 24.338 35.7417 24.7719 35.3844L24.3773 34.7887C24.0618 35.0269 23.6674 35.1858 23.273 35.1858C22.7601 35.1858 22.2473 34.9475 22.1289 34.2722H24.9297V33.9547C24.9692 32.7235 24.2591 31.9293 23.1939 31.9293H23.1941ZM23.1941 32.644C23.7067 32.644 24.062 32.9619 24.1407 33.5576H22.1684C22.2473 33.0413 22.6024 32.644 23.1941 32.644ZM43.7453 33.9149V30.4996H42.9169V32.4852C42.6408 32.1279 42.2463 31.9293 41.7335 31.9293C40.6685 31.9293 39.8401 32.7633 39.8401 33.9149C39.8401 35.0665 40.6685 35.9005 41.7335 35.9005C42.2859 35.9005 42.6803 35.7021 42.9169 35.3446V35.8211H43.7453V33.9149ZM40.708 33.9149C40.708 33.2398 41.1418 32.6838 41.8519 32.6838C42.5225 32.6838 42.9958 33.2001 42.9958 33.9149C42.9958 34.59 42.5225 35.146 41.8519 35.146C41.1418 35.1062 40.708 34.59 40.708 33.9149ZM13.0169 33.9149V32.0087H12.1886V32.4852C11.9124 32.1279 11.518 31.9293 11.0052 31.9293C9.94015 31.9293 9.11179 32.7633 9.11179 33.9149C9.11179 35.0665 9.94015 35.9005 11.0052 35.9005C11.5575 35.9005 11.9519 35.7021 12.1886 35.3446V35.8211H13.0169V33.9149ZM9.94015 33.9149C9.94015 33.2398 10.3741 32.6838 11.084 32.6838C11.7546 32.6838 12.2281 33.2001 12.2281 33.9149C12.2281 34.59 11.7546 35.146 11.084 35.146C10.3741 35.1062 9.94015 34.59 9.94015 33.9149Z" fill="black"/>
<path d="M16.7646 3.05783H29.19V25.5354H16.7646V3.05783Z" fill="#FF5F00"/>
<path d="M17.5535 14.2967C17.5535 9.72977 19.6835 5.67895 22.9574 3.05783C20.5514 1.15164 17.5141 0 14.2007 0C6.35069 0 0 6.39371 0 14.2967C0 22.1995 6.35069 28.5934 14.2005 28.5934C17.514 28.5934 20.5512 27.4418 22.9574 25.5354C19.6835 22.9541 17.5535 18.8636 17.5535 14.2967Z" fill="#EB001B"/>
<path d="M45.9545 14.2967C45.9545 22.1995 39.6038 28.5934 31.754 28.5934C28.4405 28.5934 25.4033 27.4418 22.9971 25.5354C26.3105 22.9145 28.4012 18.8636 28.4012 14.2967C28.4012 9.72977 26.271 5.67895 22.9971 3.05783C25.4031 1.15164 28.4405 0 31.754 0C39.6038 0 45.9547 6.43351 45.9547 14.2967H45.9545Z" fill="#F79E1B"/>
</g>
<defs>
<clipPath id="clip0_105_115">
<rect width="46" height="36" fill="white"/>
</clipPath>
</defs>
</svg>
