<svg width="20" height="22" viewBox="0 0 20 22" fill="none" xmlns="http://www.w3.org/2000/svg">
<path d="M13.8529 15.3921V20.0097H1.53921V1.53921H9.23525V0H1.53921C1.13099 0 0.739482 0.162166 0.450824 0.450824C0.162166 0.739482 0 1.13099 0 1.53921V20.0097C0 20.4179 0.162166 20.8094 0.450824 21.0981C0.739482 21.3868 1.13099 21.5489 1.53921 21.5489H13.8529C14.2611 21.5489 14.6526 21.3868 14.9413 21.0981C15.2299 20.8094 15.3921 20.4179 15.3921 20.0097V15.3921H13.8529Z" fill="#82888C"/>
<path d="M19.6557 2.89375L17.116 0.354055C16.8858 0.128435 16.5764 0.00205994 16.254 0.00205994C15.9317 0.00205994 15.6223 0.128435 15.3921 0.354055L4.61761 11.1285V15.3921H8.87353L19.648 4.61766C19.8736 4.38749 20 4.07802 20 3.75571C20 3.43339 19.8736 3.12393 19.648 2.89375H19.6557ZM8.23476 13.8529H6.15682V11.775L13.4219 4.50222L15.5075 6.58785L8.23476 13.8529ZM16.5927 5.50271L14.507 3.41708L16.254 1.67008L18.3397 3.75571L16.5927 5.50271Z" fill="#82888C"/>
</svg>
