<svg width="18" height="21" viewBox="0 0 18 21" fill="none" xmlns="http://www.w3.org/2000/svg">
<path d="M8.85043 0C8.15238 0.0138652 7.6511 0.147896 7.31847 0.388226L2.76008 2.79615L0.225564 6.19729C-0.308512 7.01071 0.0709636 8.5821 1.73878 7.57456L3.56588 5.19899C5.8849 3.22597 10.6166 4.13137 8.37257 8.0922C7.27162 10.3846 7.78696 11.503 9.20648 11.9745L9.85299 9.82997C10.9727 7.34348 13.0621 6.89517 12.9778 4.88934L18 5.24521L17.9532 0.0647043L8.85043 0ZM6.31591 4.77841C5.50074 4.76455 4.69962 5.09731 4.1187 5.57797L2.28691 7.95355C2.78819 8.34639 3.29416 8.13379 3.79544 7.65775C4.38574 7.95355 4.84486 7.49599 5.21965 6.58089C5.37425 5.95696 5.60381 5.51789 6.31591 4.77841ZM2.58674 9.21528C2.568 9.21528 2.54458 9.21528 2.52584 9.2199C2.37124 9.25225 2.18853 9.41401 2.06672 9.78375C1.94023 10.1535 1.91212 10.6804 2.02456 11.2442C2.137 11.8035 2.37124 12.2795 2.63359 12.5753C2.88658 12.8665 3.12082 12.9496 3.27542 12.9173C3.43471 12.8896 3.61273 12.7232 3.73454 12.3581C3.86103 11.9883 3.89383 11.4568 3.78139 10.8976C3.66427 10.3337 3.43002 9.8577 3.17235 9.56653C2.94748 9.30772 2.74134 9.21528 2.58674 9.21528ZM6.45645 14.1513C6.08635 14.1559 5.62255 14.2715 5.16811 14.4887C4.64809 14.7429 4.24051 15.0941 4.02032 15.4177C3.80013 15.7366 3.78139 15.9769 3.85166 16.1202C3.92193 16.2588 4.12807 16.3928 4.5216 16.4113C4.91513 16.4344 5.44452 16.3281 5.96454 16.0739C6.48456 15.8197 6.89215 15.4731 7.11234 15.1496C7.33253 14.8307 7.35127 14.5857 7.28099 14.4471C7.21072 14.3038 7.00459 14.1744 6.61106 14.1559C6.55952 14.1513 6.51267 14.1513 6.45645 14.1513ZM1.88401 18.5697C1.66382 18.5743 1.46237 18.6066 1.28435 18.6575C0.886132 18.773 0.656573 18.981 0.581615 19.226C0.501972 19.4755 0.581615 19.7713 0.848654 20.0902C1.12038 20.4045 1.57481 20.7049 2.137 20.8713C2.6945 21.0377 3.23794 21.0331 3.64084 20.9129C4.04374 20.7973 4.2733 20.5894 4.34826 20.3444C4.42322 20.0948 4.34826 19.7991 4.07654 19.4802C3.8095 19.1659 3.35506 18.8655 2.79288 18.6991C2.47431 18.6066 2.1651 18.5651 1.88401 18.5697Z" fill="#D9D9D9"/>
</svg>
