<svg width="16" height="16" viewBox="0 0 16 16" fill="none" xmlns="http://www.w3.org/2000/svg">
<path d="M15.5 13.2V15.5H0.5V13.2C0.5 12.7242 0.621197 12.294 0.864034 11.8987L0.864137 11.8985C1.10843 11.5005 1.42768 11.2027 1.82681 10.9956C2.82709 10.4958 3.84055 10.1221 4.86755 9.87299C5.89563 9.62432 6.93951 9.5 8 9.5C9.0605 9.5 10.1044 9.62432 11.1325 9.87299C12.1595 10.1221 13.1729 10.4958 14.1732 10.9956C14.5723 11.2027 14.8916 11.5005 15.1359 11.8985L15.136 11.8987C15.3788 12.294 15.5 12.7242 15.5 13.2ZM8 7.5C7.03366 7.5 6.21887 7.16176 5.52855 6.47145C4.83824 5.78113 4.5 4.96634 4.5 4C4.5 3.03366 4.83824 2.21887 5.52855 1.52855C6.21887 0.83824 7.03366 0.5 8 0.5C8.96634 0.5 9.78113 0.83824 10.4714 1.52855C11.1618 2.21887 11.5 3.03366 11.5 4C11.5 4.96634 11.1618 5.78113 10.4714 6.47145C9.78113 7.16176 8.96634 7.5 8 7.5Z" stroke="#82888C"/>
</svg>
