<svg width="62" height="20" viewBox="0 0 62 20" fill="none" xmlns="http://www.w3.org/2000/svg">
<path d="M32.0649 6.39377C32.0295 9.17985 34.5505 10.7345 36.4495 11.6589C38.4005 12.6073 39.0559 13.2155 39.0481 14.0637C39.0336 15.3617 37.4918 15.9346 36.0491 15.9568C33.5321 15.9958 32.0685 15.278 30.9051 14.7351L29.9983 18.9735C31.1657 19.5108 33.3272 19.9794 35.5686 20C40.8301 20 44.2724 17.4055 44.291 13.3829C44.3116 8.27769 37.222 7.99511 37.2705 5.71321C37.2872 5.02129 37.9481 4.28292 39.3964 4.09518C40.1133 4.00034 42.0922 3.92776 44.3358 4.95984L45.2164 0.859099C44.0098 0.420235 42.4591 -2.94754e-07 40.5284 -2.94754e-07C35.5761 -2.94754e-07 32.093 2.6298 32.0649 6.39377M53.678 0.35322C52.7172 0.35322 51.9076 0.913049 51.5462 1.77215L44.0304 19.6988H49.2881L50.3343 16.8104H56.7591L57.366 19.6988H62L57.9562 0.35322H53.678M54.4135 5.57918L55.9308 12.8437H51.7753L54.4135 5.57918M25.6903 0.353461L21.546 19.6986H26.5561L30.6985 0.352978H25.6903M18.2786 0.352978L13.0638 13.5206L10.9544 2.32472C10.7069 1.0749 9.7294 0.35322 8.64391 0.35322H0.119398L0 0.914984C1.75005 1.29433 3.73841 1.90618 4.94305 2.56085C5.68027 2.96076 5.89048 3.31035 6.13267 4.26066L10.128 19.6988H15.4225L23.5397 0.35322H18.2786" fill="url(#paint0_linear_105_114)"/>
<defs>
<linearGradient id="paint0_linear_105_114" x1="28.5039" y1="20.4012" x2="29.0822" y2="-0.139127" gradientUnits="userSpaceOnUse">
<stop stop-color="#222357"/>
<stop offset="1" stop-color="#254AA5"/>
</linearGradient>
</defs>
</svg>
