<svg width="15" height="15" viewBox="0 0 15 15" fill="none" xmlns="http://www.w3.org/2000/svg">
<path d="M7.50095 1.69792C7.08674 1.69792 6.75095 1.36213 6.75095 0.947917C6.75095 0.533703 7.08674 0.197917 7.50095 0.197917V1.69792ZM0.199908 7.49896C0.199908 7.08475 0.535695 6.74896 0.949908 6.74896C1.36412 6.74896 1.69991 7.08475 1.69991 7.49896H0.199908ZM10.3314 13.8931L10.5186 14.6193H10.5186L10.3314 13.8931ZM13.895 10.3294L13.1688 10.1422L13.895 10.3294ZM4.67056 13.8931L4.48334 14.6193L4.67056 13.8931ZM1.10687 10.3294L0.380609 10.5166L1.10687 10.3294ZM13.895 4.66856L13.1688 4.85578L13.895 4.66856ZM10.3314 1.10488L10.1441 1.83113L10.3314 1.10488ZM4.31645 0.197917C4.73066 0.197917 5.06645 0.533703 5.06645 0.947917C5.06645 1.36213 4.73066 1.69792 4.31645 1.69792V0.197917ZM0.949928 0.947917H0.199928C0.199928 0.533703 0.535715 0.197917 0.949928 0.197917V0.947917ZM1.69993 4.13244C1.69993 4.54666 1.36414 4.88244 0.949928 4.88244C0.535715 4.88244 0.199928 4.54666 0.199928 4.13244H1.69993ZM8.19837 6.77212C8.49928 7.05676 8.51247 7.53146 8.22782 7.83237C7.94317 8.13328 7.46848 8.14647 7.16757 7.86182L8.19837 6.77212ZM7.50096 13.3C9.02844 13.3 9.65057 13.294 10.1441 13.1668L10.5186 14.6193C9.79436 14.806 8.93549 14.8 7.50096 14.8V13.3ZM14.802 7.49896C14.802 8.93349 14.808 9.79237 14.6213 10.5166L13.1688 10.1422C13.296 9.64858 13.302 9.02645 13.302 7.49896H14.802ZM10.1441 13.1668C11.6278 12.7843 12.7863 11.6258 13.1688 10.1422L14.6213 10.5166C14.1025 12.529 12.531 14.1005 10.5186 14.6193L10.1441 13.1668ZM7.50096 14.8C6.06642 14.8 5.20755 14.806 4.48334 14.6193L4.85777 13.1668C5.35134 13.294 5.97347 13.3 7.50096 13.3V14.8ZM1.69991 7.49896C1.69991 9.02644 1.70589 9.64858 1.83313 10.1422L0.380609 10.5166C0.193924 9.79237 0.199908 8.93349 0.199908 7.49896H1.69991ZM4.48334 14.6193C2.47088 14.1005 0.899376 12.529 0.380609 10.5166L1.83313 10.1422C2.21557 11.6258 3.37413 12.7843 4.85777 13.1668L4.48334 14.6193ZM13.302 7.49896C13.302 5.97148 13.296 5.34935 13.1688 4.85578L14.6213 4.48135C14.808 5.20556 14.802 6.06443 14.802 7.49896H13.302ZM7.50095 0.197917C8.93549 0.197917 9.79436 0.191932 10.5186 0.378617L10.1441 1.83113C9.65057 1.7039 9.02844 1.69792 7.50095 1.69792V0.197917ZM13.1688 4.85578C12.7863 3.37214 11.6278 2.21358 10.1441 1.83113L10.5186 0.378617C12.531 0.897384 14.1025 2.46889 14.6213 4.48135L13.1688 4.85578ZM4.31645 1.69792H0.949928V0.197917H4.31645V1.69792ZM1.69993 0.947917V4.13244H0.199928V0.947917H1.69993ZM1.46533 0.403064L8.19837 6.77212L7.16757 7.86182L0.43453 1.49277L1.46533 0.403064Z" fill="black"/>
</svg>
