<svg width="20" height="20" viewBox="0 0 20 20" fill="none" xmlns="http://www.w3.org/2000/svg">
<path d="M7 12C7 9.5 7.875 7.375 9.625 5.625C11.375 3.875 13.5 3 16 3V5C14.05 5 12.396 5.679 11.038 7.037C9.67933 8.39567 9 10.05 9 12H7ZM11 12C11 10.6167 11.4877 9.43733 12.463 8.462C13.4377 7.48733 14.6167 7 16 7V9C15.1667 9 14.4583 9.29167 13.875 9.875C13.2917 10.4583 13 11.1667 13 12H11ZM3 4C2.45 4 1.979 3.804 1.587 3.412C1.19567 3.02067 1 2.55 1 2C1 1.45 1.19567 0.979 1.587 0.587C1.979 0.195667 2.45 0 3 0C3.55 0 4.02067 0.195667 4.412 0.587C4.804 0.979 5 1.45 5 2C5 2.55 4.804 3.02067 4.412 3.412C4.02067 3.804 3.55 4 3 4ZM0 9V6.5C0 6.08333 0.146 5.72933 0.438 5.438C0.729333 5.146 1.08333 5 1.5 5H4.5C5.25 5 5.896 4.76233 6.438 4.287C6.97933 3.81233 7.31667 3.21667 7.45 2.5H9.45C9.35 3.5 8.98333 4.38333 8.35 5.15C7.71667 5.91667 6.93333 6.45 6 6.75V9H0ZM17 15C16.45 15 15.979 14.8043 15.587 14.413C15.1957 14.021 15 13.55 15 13C15 12.45 15.1957 11.979 15.587 11.587C15.979 11.1957 16.45 11 17 11C17.55 11 18.021 11.1957 18.413 11.587C18.8043 11.979 19 12.45 19 13C19 13.55 18.8043 14.021 18.413 14.413C18.021 14.8043 17.55 15 17 15ZM14 20V17.75C13.0667 17.45 12.2833 16.9167 11.65 16.15C11.0167 15.3833 10.65 14.5 10.55 13.5H12.55C12.6833 14.2167 13.0207 14.8127 13.562 15.288C14.104 15.7627 14.75 16 15.5 16H18.5C18.9167 16 19.2707 16.146 19.562 16.438C19.854 16.7293 20 17.0833 20 17.5V20H14Z" fill="#3682C1" fill-opacity="0.5"/>
</svg>
