<svg width="21" height="22" viewBox="0 0 21 22" fill="none" xmlns="http://www.w3.org/2000/svg">
<path d="M9.37565 0.916656H2.04232C1.03398 0.916656 0.208984 1.74166 0.208984 2.74999V13.75L2.95898 11H7.54232V10.0833C7.54232 8.06666 9.18315 6.41666 11.209 6.41666V2.74999C11.209 1.74166 10.384 0.916656 9.37565 0.916656ZM6.62565 3.66666H2.95898V5.49999H5.50017V6.41666H2.95898V8.24999H5.25065H6.62565V9.16666H4.79232H3.87565H2.04232V3.66666V2.74999H5.25065H6.16732H6.62565V3.66666ZM18.5423 8.24999H11.209C10.2006 8.24999 9.37565 9.07499 9.37565 10.0833V16.5C9.37565 17.5083 10.2006 18.3333 11.209 18.3333H17.6257L20.3757 21.0833V10.0833C20.3757 9.07499 19.5506 8.24999 18.5423 8.24999ZM17.2865 17.4167L16.5073 15.3542H13.244L12.474 17.4167H11.099L14.1881 9.16666H15.5632L18.6615 17.4167H17.2865ZM14.8756 11L15.994 13.9792H13.7665L14.8756 11Z" fill="#92B7D7"/>
</svg>
