<svg width="20" height="20" viewBox="0 0 20 20" fill="none" xmlns="http://www.w3.org/2000/svg">
<path d="M14 13C13.1667 13 12.4583 12.7083 11.875 12.125C11.2917 11.5417 11 10.8333 11 10C11 9.16667 11.2917 8.45833 11.875 7.875C12.4583 7.29167 13.1667 7 14 7C14.8333 7 15.5417 7.29167 16.125 7.875C16.7083 8.45833 17 9.16667 17 10C17 10.8333 16.7083 11.5417 16.125 12.125C15.5417 12.7083 14.8333 13 14 13ZM8 20V17.1C8 16.75 8.08333 16.4207 8.25 16.112C8.41667 15.804 8.65 15.5583 8.95 15.375C9.48333 15.0583 10.0457 14.7957 10.637 14.587C11.229 14.379 11.8333 14.225 12.45 14.125L14 16L15.55 14.125C16.1667 14.225 16.7667 14.379 17.35 14.587C17.9333 14.7957 18.4917 15.0583 19.025 15.375C19.325 15.5583 19.5627 15.804 19.738 16.112C19.9127 16.4207 20 16.75 20 17.1V20H8ZM6 17.1V18H2C1.45 18 0.979 17.8043 0.587 17.413C0.195667 17.021 0 16.55 0 16V2C0 1.45 0.195667 0.979 0.587 0.587C0.979 0.195667 1.45 0 2 0H16C16.55 0 17.021 0.195667 17.413 0.587C17.8043 0.979 18 1.45 18 2V7C17.4833 6.35 16.9 5.854 16.25 5.512C15.6 5.17067 14.85 5 14 5V4H4V6H11C10.6667 6.26667 10.3667 6.56667 10.1 6.9C9.83333 7.23333 9.60833 7.6 9.425 8H4V10H9C9 10.35 9.03767 10.6917 9.113 11.025C9.18767 11.3583 9.29167 11.6833 9.425 12H4V14H7.45C7 14.3833 6.64567 14.8457 6.387 15.387C6.129 15.929 6 16.5 6 17.1Z" fill="#3682C1" fill-opacity="0.5"/>
</svg>
