<svg width="16" height="20" viewBox="0 0 16 20" fill="none" xmlns="http://www.w3.org/2000/svg">
<path d="M7 15H9V9H7V15ZM8 7C8.28333 7 8.521 6.904 8.713 6.712C8.90433 6.52067 9 6.28333 9 6C9 5.71667 8.90433 5.479 8.713 5.287C8.521 5.09567 8.28333 5 8 5C7.71667 5 7.47933 5.09567 7.288 5.287C7.096 5.479 7 5.71667 7 6C7 6.28333 7.096 6.52067 7.288 6.712C7.47933 6.904 7.71667 7 8 7ZM8 20C5.68333 19.4167 3.771 18.0873 2.263 16.012C0.754333 13.9373 0 11.6333 0 9.1V3L8 0L16 3V9.1C16 11.6333 15.246 13.9373 13.738 16.012C12.2293 18.0873 10.3167 19.4167 8 20Z" fill="#92B7D7"/>
</svg>
